HIERARCHY
ROOT joint_0
{
	OFFSET 0.000000 0.000000 0.000000
	CHANNELS 6 Xposition Yposition Zposition Zrotation Yrotation Xrotation 
	JOINT joint_1
	{
		OFFSET 1.363060 -1.794630 0.839290
		CHANNELS 3 Zrotation Yrotation Xrotation
		JOINT joint_2
		{
			OFFSET 2.448110 -6.726130 0.000000
			CHANNELS 3 Zrotation Yrotation Xrotation
			JOINT joint_3
			{
				OFFSET 2.562200 -7.039590 0.000000
				CHANNELS 3 Zrotation Yrotation Xrotation
				JOINT joint_4
				{
					OFFSET 0.157640 -0.433110 2.322550
					CHANNELS 3 Zrotation Yrotation Xrotation
					End Site
					{
						OFFSET 0.000000 0.000000 0.000000
					}
				}
			}
		}
	}
	JOINT joint_5
	{
		OFFSET -1.305520 -1.794630 0.839290
		CHANNELS 3 Zrotation Yrotation Xrotation
		JOINT joint_6
		{
			OFFSET -2.542530 -6.985550 0.000000
			CHANNELS 3 Zrotation Yrotation Xrotation
			JOINT joint_7
			{
				OFFSET -2.568260 -7.056230 0.000000
				CHANNELS 3 Zrotation Yrotation Xrotation
				JOINT joint_8
				{
					OFFSET -0.164730 -0.452590 2.363150
					CHANNELS 3 Zrotation Yrotation Xrotation
					End Site
					{
						OFFSET 0.000000 0.000000 0.000000
					}
				}
			}
		}
	}
	JOINT joint_9
	{
		OFFSET 0.028270 2.035590 -0.193380
		CHANNELS 3 Zrotation Yrotation Xrotation
		JOINT joint_10
		{
			OFFSET 0.056720 2.048850 -0.042750
			CHANNELS 3 Zrotation Yrotation Xrotation
			JOINT joint_11
			{
				OFFSET -0.054170 1.746240 0.172020
				CHANNELS 3 Zrotation Yrotation Xrotation
				JOINT joint_12
				{
					OFFSET 0.104070 1.761360 -0.123970
					CHANNELS 3 Zrotation Yrotation Xrotation
					End Site
					{
						OFFSET 0.000000 0.000000 0.000000
					}
				}
			}
			JOINT joint_13
			{
				OFFSET 3.362410 1.200890 -0.311210
				CHANNELS 3 Zrotation Yrotation Xrotation
				JOINT joint_14
				{
					OFFSET 4.983000 -0.000000 -0.000000
					CHANNELS 3 Zrotation Yrotation Xrotation
					JOINT joint_15
					{
						OFFSET 3.483560 -0.000000 -0.000000
						CHANNELS 3 Zrotation Yrotation Xrotation
						JOINT joint_16
						{
							OFFSET 0.000000 0.000000 0.000000
							CHANNELS 3 Zrotation Yrotation Xrotation
							End Site
							{
								OFFSET 0.000000 0.000000 0.000000
							}
						}
					}
				}
			}
			JOINT joint_17
			{
				OFFSET -3.136600 1.374050 -0.404650
				CHANNELS 3 Zrotation Yrotation Xrotation
				JOINT joint_18
				{
					OFFSET -5.241900 -0.000000 -0.000000
					CHANNELS 3 Zrotation Yrotation Xrotation
					JOINT joint_19
					{
						OFFSET -3.444170 -0.000000 -0.000000
						CHANNELS 3 Zrotation Yrotation Xrotation
						JOINT joint_20
						{
							OFFSET 0.000000 0.000000 0.000000
							CHANNELS 3 Zrotation Yrotation Xrotation
							End Site
							{
								OFFSET 0.000000 0.000000 0.000000
							}
						}
					}
				}
			}
		}
	}
}
MOTION
Frames: 13
Frame Time: 0.031667
0.383414 16.863363 -1.810240 -1.405944 0.763194 0.967095 -18.254841 10.708627 3.675906 2.725499 7.316654 7.495799 -8.469391 6.117589 -0.559731 6.633244 0.197992 -8.188529 21.769479 -11.950602 6.535065 -10.309431 9.077207 0.845561 -7.529226 -6.317550 4.208667 -5.689914 -5.418921 -6.807577 6.622376 -5.889350 -10.501750 -6.397077 -5.108504 13.373680 6.449552 -6.717436 10.019471 -8.615401 -7.777531 8.414281 -11.786171 5.880612 -5.656207 11.736951 -9.696276 -26.247716 11.936070 5.917764 3.852734 9.338916 -7.846446 8.275130 11.083621 1.157040 -9.021521 -13.327855 11.811117 -46.194805 -6.703114 -10.012827 8.131803 -3.089784 -4.957091 2.090078 
0.383318 16.859610 -1.817252 -1.379972 0.747692 0.969901 -28.339953 5.046636 -5.540082 8.716904 4.566416 10.342930 7.474597 2.677332 -10.752042 6.394966 -0.503756 -6.172109 30.444036 -10.300709 11.832633 7.681087 -6.124153 5.207408 2.761419 -7.251436 -9.354021 3.231109 4.556146 4.271383 -5.150511 -2.649834 -4.617073 0.345682 3.688968 25.545845 -4.415525 -2.018437 27.610394 -1.518601 -0.379080 16.084757 -9.231311 6.428277 7.938820 11.377919 -3.664486 -20.158566 12.238139 4.674073 6.064473 7.439117 5.809742 -1.637166 21.817037 8.681797 -3.629626 -5.316151 15.287531 -51.143030 -6.297615 -2.006250 -1.461876 -5.484316 9.152010 8.547429 
0.359751 16.856756 -1.922252 -1.278687 2.231196 1.264987 -18.365096 -3.949552 7.707784 -0.546287 4.076723 12.568287 -10.237944 4.194400 -7.032083 5.312638 -9.146209 -8.319122 31.592417 -4.470100 -2.802723 -6.706263 7.334158 0.386223 2.289301 0.560676 -13.631864 5.107208 -5.767269 6.663486 -1.866166 -3.273967 -19.333915 6.268935 2.869633 12.336994 3.024591 2.878926 9.542946 0.757895 1.711436 17.620493 -22.679106 4.587170 1.096394 10.041707 -7.791236 -25.981531 0.492554 7.405291 -2.896105 5.632647 -5.739672 -9.185504 6.310291 8.602510 -9.611337 -8.785830 12.146151 -36.500248 -12.472067 -8.074120 3.168921 4.422693 -0.627196 -2.500490 
0.356616 16.846096 -1.948889 -0.875224 1.924792 0.723241 -13.051316 1.823524 -5.856660 -7.609979 5.744882 -4.192035 -0.031311 -2.073429 -4.929873 2.305060 -11.098023 3.641395 34.351196 2.090078 -2.976151 -11.413955 -3.046362 8.888827 7.864883 8.238926 -4.494790 4.306534 -8.313164 -9.734247 -8.596458 7.014358 -19.142732 4.117818 -6.932391 10.664571 3.126808 -5.422457 14.764225 1.133294 -9.976172 2.947080 -19.126103 3.289822 -6.806449 6.541750 -4.424102 -22.200739 -1.677615 8.662262 -1.656440 5.009102 -2.749009 -1.677801 10.653794 6.056942 6.256290 -18.079427 11.922834 -33.762121 -11.121409 -19.464512 -5.312670 -7.137768 7.391470 7.708307 
0.352688 16.855104 -1.909324 -1.206381 1.764283 0.913657 -30.563359 7.306341 -5.255536 -1.846457 -6.761840 11.141859 -3.565437 4.252532 1.886020 -2.684417 -0.706963 -4.421643 18.038160 -11.429121 11.170137 -8.536876 -8.709011 5.434496 -4.220429 8.341639 -14.627701 9.749467 -9.696310 5.443266 3.975894 6.148141 -20.063796 8.139210 7.553176 19.964368 8.676803 9.295754 30.371422 16.053618 -10.905558 9.685896 -6.301337 6.140861 2.319624 15.184366 -7.520621 -30.977234 17.513235 5.145833 -10.231100 7.030981 -0.081463 -4.586857 6.461190 -3.286769 -4.512614 -6.645480 -0.601709 -42.427976 -19.388038 -16.622825 -5.555057 2.146654 -5.633236 -0.750139 
0.353326 16.855556 -1.907733 -1.240121 1.724975 0.923689 -26.165033 1.193185 6.441948 -6.235496 3.458471 2.116568 -9.523530 5.504830 6.605718 9.270547 -4.690659 2.036672 37.300406 -6.456365 0.809786 6.545954 -2.694628 -0.623625 10.706065 9.284757 -8.908999 -6.582238 -4.400208 0.617495 0.023671 -1.804557 -12.191721 5.373476 6.749033 6.574098 -3.742800 -6.888434 30.217149 3.112667 4.845457 3.195227 -11.029774 -12.612160 -1.549315 -3.212453 -1.543506 -24.501958 10.952394 12.486953 7.511993 -1.831742 -1.362438 -6.089820 2.909400 0.329091 9.649413 -7.133768 9.241217 -40.345330 -23.260470 -6.163461 -4.059344 -8.375693 -4.807535 5.510001 
0.353497 16.856457 -1.906577 -1.280150 1.729442 0.936999 -25.093526 6.528338 -6.053023 -2.412421 -9.888664 9.723343 -1.112855 2.042607 -3.127437 -0.568364 -5.105336 -5.473422 27.737330 -3.385133 -4.599652 -3.994273 3.971499 3.045654 10.162498 3.263622 3.221417 0.844547 5.536818 8.971865 0.366055 -0.153012 -19.709471 -2.001132 7.385916 18.335121 5.375743 -5.262413 30.347747 13.362717 -9.181285 6.458015 -19.407402 -8.225413 7.405555 8.997749 -4.088898 -37.397994 1.352227 14.566569 -9.332313 5.165056 2.434809 9.447175 14.429322 1.558445 6.451377 -13.631262 15.322090 -47.338444 -20.710880 -18.100112 -2.190510 -6.122589 5.024229 -9.917251 
0.354524 16.854355 -1.908769 -1.262170 1.675628 0.897137 -20.334052 -0.564245 4.279187 5.056343 -4.056445 -6.031689 2.115733 3.273538 7.393437 -1.618209 7.072399 -6.087090 19.613384 1.080892 8.237177 4.186841 3.898867 6.195213 -3.355641 -8.241837 -6.634803 -5.207147 5.634585 5.146786 6.438067 6.386125 -16.662692 6.587775 5.743451 22.034005 -9.515592 3.199020 30.274090 16.137311 1.970121 13.560496 -18.574142 0.598876 9.247028 12.834963 -9.627570 -22.516657 17.140277 -2.887531 -9.290078 -8.781589 1.236257 -3.880316 18.396881 -4.746540 5.468399 -13.570736 5.162929 -38.410178 -8.231767 -1.458055 -1.279790 -8.197290 -6.145933 -0.954133 
0.355215 16.853754 -1.910480 -1.258266 1.650171 0.888190 -13.486991 14.053838 1.807892 -9.684567 -2.404205 9.485384 -10.060504 -1.661915 -10.722644 -7.061592 -9.584636 -1.789157 21.906563 -3.297098 1.778388 5.031451 0.871865 10.261657 5.069959 5.229736 -7.377661 0.334771 -0.080349 -6.436534 2.548992 0.118049 -8.344314 8.126710 -9.014290 13.364054 -3.151799 -0.722182 25.724351 9.137292 1.796093 7.515625 -7.227846 -0.391801 -3.853885 13.656182 -12.288971 -19.500048 9.170132 0.522037 7.011391 5.718692 -4.248935 0.305732 7.487334 3.367367 2.583325 -15.271605 0.926173 -52.602315 -21.024300 -7.620680 7.937167 -8.346995 2.256702 7.465315 
0.354847 16.854204 -1.912898 -1.277922 1.673580 0.855423 -26.369852 9.714004 -9.478253 -0.715354 -10.825824 5.204411 2.080520 -2.388581 -4.530846 9.664816 -11.028199 3.929535 20.229017 -5.102329 11.400952 0.814788 2.378011 -0.482950 7.683119 10.136480 -4.649097 0.411514 1.304447 5.472877 10.750588 4.228640 -4.327159 -8.704239 0.072902 13.559868 4.374140 -3.721385 20.005247 9.537154 -2.088879 14.955703 -14.938408 -3.980274 8.244671 8.317196 -9.699044 -24.754179 11.964417 3.243083 -3.420194 4.543163 6.226653 8.568475 6.768716 0.000073 4.088593 -5.625449 13.381383 -42.348357 -7.127748 -3.190943 -2.365257 -8.689655 -1.075736 0.228870 
0.355467 16.859909 -1.895105 -1.494062 1.709578 1.028775 -20.215221 -0.799516 -11.446167 -2.386279 7.380113 3.839008 -10.747806 -0.589185 2.385063 2.339950 4.280064 -9.753404 32.000043 -6.475778 -2.863801 -5.833242 3.030026 4.964304 9.421345 5.445797 -3.076161 8.046925 4.659998 -6.492048 11.288512 -3.496903 -12.869072 0.982794 -0.787517 10.034893 4.073074 -8.199295 19.809856 1.162997 -7.744219 15.036318 -22.858417 6.787819 -0.256367 0.920813 -8.501746 -22.819888 7.183711 0.311374 8.199179 -6.405314 1.164451 -3.595854 17.419271 7.218501 0.557982 -14.416694 5.913056 -49.747974 -8.271854 -7.906293 -0.116937 2.316114 -1.982858 6.648829 
0.355698 16.858559 -1.896486 -1.490068 1.658553 0.979278 -13.830321 1.494022 4.742342 -8.607875 -5.053065 10.538668 5.734576 -7.692850 -0.774485 4.205032 3.420632 6.905050 18.832721 -4.405886 10.411128 0.037453 5.924683 9.957472 -8.593029 3.639779 -12.301676 10.008855 8.654916 -9.788707 -6.412246 3.596377 -14.867781 1.280433 -0.674285 15.498894 4.318704 -4.887495 22.713115 6.977581 -9.507729 -2.767029 -16.205904 -3.087726 1.742560 9.657119 -1.224456 -26.178899 2.343431 7.184592 4.536013 -0.649338 -6.412499 -1.866407 12.228861 -0.033097 -7.186429 -22.091990 -0.464586 -46.070818 -22.922043 -9.669925 5.369641 3.774529 7.889039 -9.173090 
0.356209 16.859009 -1.897598 -1.467705 1.612175 0.967268 -21.774705 4.881545 -3.818292 -6.507021 -6.935386 4.702960 -4.808074 4.833235 -2.670723 -4.225162 1.807404 4.782986 18.728554 -6.260538 1.833315 -0.337316 -9.102410 2.290965 -3.695763 -5.559517 -6.589611 -5.875221 1.047432 2.856093 4.482807 -1.629068 -2.828531 4.256667 4.326265 10.937615 -4.872039 4.797462 19.158072 5.526227 -5.218234 5.225917 -24.343415 1.295515 -7.040689 8.022970 -15.161160 -36.213850 2.594296 6.149314 -4.225219 -1.192994 -2.104177 4.672804 13.567099 11.764968 -5.388937 -22.899536 1.450589 -47.019817 -23.038139 -13.779557 5.231897 9.123996 9.990787 -3.754405 
